<svg width="28" height="28" viewBox="0 0 28 28" fill="none" xmlns="http://www.w3.org/2000/svg">
<path fill-rule="evenodd" clip-rule="evenodd" d="M13.9633 2C7.35781 2 2 7.5072 2 14.2969C2 19.7286 5.44958 24.3305 10.1468 25.9902C10.7339 26.0657 10.9541 25.6885 10.9541 25.3867C10.9541 25.0849 10.9541 24.3305 10.9541 23.2744C7.65139 24.0288 6.9174 21.6147 6.9174 21.6147C6.4037 20.1813 5.59633 19.8041 5.59633 19.8041C4.49539 19.0497 5.66971 19.0497 5.66971 19.0497C6.84403 19.1251 7.50456 20.3321 7.50456 20.3321C8.6055 22.2182 10.2936 21.6901 10.9541 21.3884C11.0275 20.5585 11.3945 20.0304 11.6881 19.7286C9.04591 19.4269 6.25687 18.3707 6.25687 13.6179C6.25687 12.26 6.69728 11.2038 7.50456 10.2985C7.43118 10.0722 6.99085 8.78972 7.65139 7.12999C7.65139 7.12999 8.67888 6.8282 10.9541 8.41251C11.9083 8.11072 12.9358 8.03531 13.9633 8.03531C14.9908 8.03531 16.0184 8.18613 16.9725 8.41251C19.2477 6.8282 20.2752 7.12999 20.2752 7.12999C20.9358 8.78972 20.4954 10.0722 20.4221 10.374C21.156 11.2038 21.6698 12.3354 21.6698 13.6933C21.6698 18.4461 18.8807 19.4269 16.2386 19.7286C16.6789 20.1058 17.0459 20.8603 17.0459 21.9919C17.0459 23.6516 17.0459 24.934 17.0459 25.3867C17.0459 25.6885 17.2661 26.0657 17.8532 25.9902C22.6239 24.3305 26 19.7286 26 14.2969C25.9266 7.5072 20.5688 2 13.9633 2Z" fill="#3B3949"/>
</svg>
