<svg width="44" height="44" viewBox="0 0 44 44" fill="none" xmlns="http://www.w3.org/2000/svg">
<path d="M7.24768 19.714C7.26281 20.3669 7.25449 21.0206 7.27062 21.6735C7.2739 21.7995 7.33843 21.9256 7.38078 22.0493C7.58623 22.6503 7.79546 23.25 7.99914 23.8515C8.03771 23.9657 8.05813 24.0862 8.08687 24.2044C8.20963 24.1386 8.33517 24.0784 8.45416 24.0052C8.51037 23.9715 8.55221 23.9148 8.60389 23.8724C8.8169 23.698 9.04378 23.6995 9.24645 23.8696C9.61828 24.1822 10.0045 24.5013 10.1361 24.9927C10.3213 25.6836 10.4675 26.3847 10.6231 27.0494C10.0335 27.4956 9.97951 28.0656 10.4131 28.814L10.8494 28.5306C10.9919 29.092 11.1366 29.6207 11.2588 30.1546C11.4451 30.9685 11.6261 31.784 11.7882 32.6031C11.8386 32.8624 11.8295 33.1352 11.8341 33.4022C11.8376 33.6016 11.7307 33.7135 11.5248 33.715C11.3254 33.715 11.1262 33.715 10.8298 33.715C11.1086 34.1221 11.4255 34.0334 11.7106 34.0339C12.1194 34.0339 12.3062 33.8428 12.2324 33.4576C12.0716 32.6199 11.9077 31.7818 11.7065 30.9532C11.3718 29.5745 10.9268 28.2206 10.7958 26.7976C10.7453 26.2475 10.6536 25.6952 10.6697 25.1464C10.6874 24.5326 10.8063 23.9216 10.88 23.3092C10.9268 22.9185 11.0166 22.5573 11.3677 22.3042C11.4358 22.2553 11.4648 22.0224 11.4136 21.9699C11.3445 21.8991 11.1809 21.9122 11.0572 21.9079C11.0204 21.9064 10.9707 21.9606 10.9447 22.0009C10.7738 22.2666 10.6011 22.5316 10.4406 22.8041C10.2679 23.0993 10.156 23.4413 9.70953 23.6538C9.77734 23.3982 9.79272 23.216 9.87288 23.0693C9.99237 22.8507 10.1676 22.6632 10.3014 22.4509C10.4058 22.2838 10.5306 22.1073 10.5616 21.9215C10.6821 21.196 10.7922 20.4673 10.8618 19.7355C10.9374 18.9154 11.2035 18.1243 11.639 17.4254C12.3168 16.3275 13.0214 15.2464 13.697 14.1483C14.147 13.416 14.7557 12.8559 15.4752 12.4051C15.7295 12.2456 15.9894 12.0774 16.27 11.9804C17.0598 11.7076 17.8513 11.4283 18.661 11.2274C20.0802 10.8745 21.5206 10.6577 22.9923 10.8094C23.8922 10.9022 24.7944 10.9788 25.6916 11.0928C26.0165 11.1339 26.3528 11.2171 26.6445 11.3607C27.3654 11.7157 28.0647 12.115 28.7703 12.5007C28.8724 12.5584 28.9677 12.6274 29.0544 12.7064C29.5684 13.1626 30.1242 13.5824 30.5795 14.0928C31.1137 14.6912 31.5967 15.3335 32.0234 16.0127C32.3685 16.562 32.5942 17.1866 32.8699 17.779C33.1699 18.4239 33.3789 19.109 33.4016 19.8093C33.421 20.3994 33.6413 20.8275 34.0429 21.2109C34.1996 21.3625 34.3473 21.5232 34.4853 21.6921C34.6083 21.8409 34.7139 22.004 34.8687 22.2182C34.2385 22.2533 33.9494 21.8459 33.6058 21.555C33.2554 21.2583 32.9312 20.9311 32.5846 20.6072C32.3494 21.0534 32.3713 21.1078 32.7242 21.311C33.5256 21.772 34.0416 22.3783 34.032 23.3934C34.0199 24.6539 33.9083 25.8994 33.7598 27.146C33.73 27.3955 33.6963 27.6448 33.6816 27.8951C33.6769 27.974 33.728 28.0562 33.7754 28.2052C33.939 27.8062 34.0709 27.4837 34.2088 27.1465L34.7633 27.3229C34.818 26.9849 34.9569 26.763 35.327 26.8266C35.5456 26.9526 35.5766 27.3748 36.0076 27.244C36.0076 27.0708 36.0679 26.8616 35.995 26.7222C35.8438 26.4333 35.6653 26.1265 35.4172 25.9289C35.1445 25.7116 34.7807 25.6085 34.3855 25.4222C34.4439 24.8676 34.4966 24.252 34.5763 23.6407C34.6738 22.892 35.3938 22.2586 36.1463 22.2346C36.5521 22.2215 36.7177 22.1008 36.8173 21.6972C37.1085 20.5162 37.233 19.3175 37.1039 18.1052C37.0243 17.3563 36.9058 16.6106 36.781 15.8672C36.5151 14.2816 35.9121 12.815 35.1901 11.3877C34.6138 10.2478 33.7424 9.34383 32.8962 8.41616C32.4328 7.90746 31.9634 7.40783 31.7802 6.71158C31.7313 6.52629 31.5833 6.36496 31.4716 6.19859C31.369 6.04557 31.2367 5.91071 31.1477 5.75114C30.7497 5.03648 30.2715 4.41812 29.4958 4.05865C29.1056 3.87791 28.7854 3.54591 28.3955 3.36441C27.3765 2.89075 26.3269 2.50027 25.2021 2.33843C24.4902 2.23609 23.7831 2.09643 23.0768 1.9588C21.7604 1.6994 20.4427 1.45488 19.1037 1.36186C18.8361 1.34603 18.5676 1.36493 18.3048 1.41808C17.413 1.59217 16.5733 1.96957 15.851 2.52094C15.4111 2.85294 15.001 3.22904 14.6055 3.61398C13.1888 4.99161 11.7587 6.35059 10.5863 7.96267C9.63819 9.26568 8.68859 10.5551 7.99183 12.0192C7.52548 12.998 7.1524 13.9928 7.14887 15.0926C7.14651 15.8468 7.15383 16.6012 7.1708 17.3558C7.18844 18.1428 7.22928 18.9275 7.24768 19.714ZM34.6776 11.3618C35.1062 12.2103 35.5619 13.0132 35.8173 13.9053L35.7066 13.9461C35.3267 13.2824 34.9395 12.6229 34.5723 11.9524C34.4737 11.7732 34.3877 11.5528 34.6776 11.3618ZM33.9239 10.245L34.5418 11.0416L33.9368 11.092C33.9 10.7731 33.872 10.5314 33.8437 10.2896L33.9239 10.245ZM24.3916 4.49324C23.9033 4.59408 23.4496 4.33443 22.9684 4.33771C22.4831 4.34124 21.9978 4.32334 21.5123 4.31981C21.0132 4.31628 20.5138 4.31981 20.0144 4.31981C21.4876 4.0226 22.9464 4.10781 24.3916 4.49324ZM22.0591 3.90538H21.3215C21.3215 3.89202 21.3215 3.87892 21.3215 3.86556H22.0606L22.0591 3.90538ZM21.8176 2.91344L21.8305 3.01629L20.8405 3.13754C21.139 2.85092 21.4881 2.95755 21.8176 2.91344ZM19.9018 3.86732H20.4216V3.89959H19.9023L19.9018 3.86732ZM19.115 3.94118L19.109 4.04806L18.4611 3.97118L19.115 3.94118ZM18.4457 3.97244C18.4102 4.01983 18.3862 4.10453 18.3449 4.11361C17.2407 4.36098 16.1629 4.71436 15.1265 5.16883C15.0915 5.1842 15.0426 5.16706 14.9927 5.13101C16.0683 4.51694 17.2448 4.2104 18.4457 3.97244ZM14.4767 3.88572C14.5863 4.33947 14.2609 4.27393 14.0812 4.35409L14.4767 3.88572ZM13.4746 6.27371L11.701 7.59462C11.9594 7.08189 12.8601 6.39345 13.4736 6.27371H13.4746ZM24.4453 42.938C24.048 42.916 24.1244 42.9528 23.7985 42.9949C23.5348 43.0292 23.0901 43.0416 22.8239 43.0343C22.5265 43.0259 22.0034 43.2422 21.8342 42.9912C21.6754 42.7552 21.4538 42.7237 21.2013 42.6607C20.1964 42.4086 19.2005 42.1215 18.2065 41.8288C18.0787 41.791 17.992 41.6302 17.8702 41.5515C17.152 41.0877 16.4855 40.5641 15.8851 39.9515C15.7177 39.7806 15.4674 39.6904 15.2044 39.5333C15.1807 39.7484 15.1618 39.919 15.1429 40.0897L15.0716 40.1169C14.9947 39.9039 14.8664 39.6944 14.8518 39.4771C14.8225 39.0408 14.5831 38.7277 14.3259 38.4226C13.6325 37.5991 13.3037 36.595 12.943 35.59C13.0068 35.6656 13.0806 35.7322 13.1326 35.8141C13.5268 36.437 13.9092 37.0675 14.3113 37.6851C14.5382 38.0339 14.7825 38.3687 15.2042 38.529C15.3106 38.5694 15.366 38.619 15.5016 38.5845C15.7033 38.5341 15.9625 38.4965 16.1293 38.5845C16.4245 38.7388 16.6862 38.7622 16.9864 38.651C17.055 38.6258 17.146 38.6614 17.2483 38.671C17.3744 39.0324 17.4021 39.4484 17.8407 39.6664C17.9811 39.6705 18.0989 39.3564 18.327 39.5371C18.3507 39.5558 18.422 39.5258 18.4661 39.5064C18.8786 39.3251 19.3232 39.1913 19.692 38.9442C20.0608 38.6972 20.3255 38.7249 20.5894 39.0574C21.075 38.9097 21.504 38.6886 21.8622 38.3516C21.958 38.2618 22.0427 38.105 22.0435 37.9782C22.048 37.3457 21.7989 36.8464 21.2068 36.5567C21.146 36.5285 21.0871 36.4965 21.0303 36.4609C20.543 36.1443 20.0556 35.8265 19.5683 35.5076C19.5037 35.465 19.4485 35.4067 19.3633 35.3359C19.542 35.1418 19.7447 35.1511 19.9355 35.1743C20.5418 35.2484 21.0976 35.1042 21.6285 34.8214C21.9981 34.6248 22.3891 34.5839 22.7987 34.6722C22.9442 34.7037 23.0964 34.7009 23.2441 34.7226C23.3407 34.7362 23.4811 34.7322 23.5214 34.7911C23.6616 34.9946 23.8731 35.0072 24.0745 35.0836C24.4693 35.2328 24.8529 35.2441 25.257 35.1569C25.3987 35.1264 25.5527 35.1521 25.7009 35.1521C25.8343 35.3561 25.7244 35.4826 25.5749 35.5706C25.1862 35.7995 24.8096 36.0702 24.3901 36.2205C23.8736 36.406 23.5169 36.775 23.142 37.1257C23.043 37.2184 23.014 37.4252 23.016 37.5794C23.0198 37.7771 23.077 37.9762 23.1304 38.1693C23.2507 38.6036 23.7143 38.7743 24.0563 38.49C24.2134 38.3594 24.3352 38.3387 24.5051 38.4201C24.5961 38.4632 24.6921 38.4951 24.7909 38.5149C25.1574 38.5905 25.5063 38.6858 25.6813 39.0695C25.6989 39.1081 25.7604 39.1267 25.8073 39.1585C25.8522 39.1401 25.9059 39.1318 25.9399 39.1015C26.0627 38.9926 26.1691 38.8015 26.3001 38.7844C26.4206 38.7688 26.557 38.9566 26.7035 39.0181C26.8151 39.0652 26.951 39.0554 27.1126 39.0753C27.1144 38.6863 27.3112 38.5769 27.6339 38.5091C27.9437 38.4436 28.2626 38.3516 28.521 38.0954C28.6811 37.9371 28.9616 37.8522 29.1976 37.8287C29.6765 37.7811 30.0469 37.5515 30.3967 37.2583C30.7676 36.9462 31.1711 36.6646 31.4981 36.3117C31.7502 36.039 31.9125 35.6797 32.1031 35.3538C32.1754 35.2305 32.2178 35.0894 32.2738 34.9563L32.4137 34.9759C32.3214 35.4297 32.1848 35.8819 32.1465 36.3412C32.0665 37.3049 31.4966 37.9545 30.8334 38.561C29.9526 39.3677 29.218 39.9957 28.5142 40.9541C28.1109 41.5011 27.8482 41.4308 27.2964 41.8195C27.0909 41.9642 26.9359 41.762 26.7151 41.8777C25.9016 42.3022 24.3341 43.1326 24.4453 42.938ZM21.082 28.842C20.8813 28.7604 20.6682 28.7131 20.4518 28.7021C20.0051 28.6819 19.5771 28.7399 19.3515 29.2226C19.6061 29.5735 19.9902 29.5571 20.3485 29.607C20.7266 29.66 20.9144 29.9958 20.7483 30.3338C20.7052 30.4215 20.6326 30.4961 20.567 30.571C20.0414 31.1735 19.3653 31.5216 18.603 31.7167C18.1011 31.8453 17.7459 32.1546 17.4921 32.5912C17.4364 32.6875 17.3852 32.8181 17.4049 32.9207C17.4871 33.3432 17.5972 33.7601 17.7013 34.1965C18.693 34.324 19.592 34.3477 20.3815 33.7122C20.6434 33.5007 20.9668 33.412 21.319 33.4097C21.5486 33.408 21.7775 33.328 22.0067 33.2837C22.8012 33.1264 23.5948 33.0631 24.3876 33.2955C24.5671 33.3482 24.7516 33.3964 24.7476 33.6636C24.3861 33.9913 23.7531 33.9323 23.4521 34.5232C23.712 34.502 23.9059 34.498 24.0959 34.4682C24.6543 34.379 25.2091 34.264 25.7693 34.1892C26.0995 34.1451 26.4388 34.1728 26.7708 34.1387C26.9097 34.1241 27.1381 34.0528 27.1575 33.9686C27.2366 33.6245 27.553 33.4866 27.7179 33.2275C27.9304 32.8932 28.0814 32.4871 27.9034 32.1435C27.7355 31.8188 27.408 31.5637 27.1144 31.321C26.8492 31.1024 26.5361 31.266 26.2437 31.3149C26.2139 31.3197 26.1801 31.3008 26.1529 31.2942C26.1154 30.3988 25.3732 30.7041 24.858 30.5408C24.9888 29.8952 25.3778 29.4422 25.9185 29.1069C26.2714 28.8878 26.4267 28.5906 26.3284 28.1901C26.2928 28.0439 26.2358 27.9039 26.1592 27.7744C25.8643 27.2856 25.2116 26.6804 24.6132 26.369C24.7638 26.5808 24.9305 26.7806 25.1118 26.9667C25.2726 27.1361 25.4473 27.2924 25.6051 27.4646C25.8219 27.7013 25.8807 27.999 25.8628 28.3048C25.8451 28.6043 25.6132 28.7532 25.3407 28.6774C24.8618 28.544 24.3732 28.4364 23.9023 28.2776C23.5625 28.1631 23.3039 28.2539 23.0889 28.4954C22.5075 29.1435 21.8292 29.1462 21.082 28.842ZM23.1395 31.1911C23.2623 31.0399 23.4168 30.9159 23.6064 30.7323C23.8411 31.3184 24.3525 31.4762 24.7995 31.7205C25.1227 31.897 25.4504 32.0669 25.7635 32.26C25.9296 32.3623 26.069 32.508 26.2149 32.6295C26.1045 32.8418 25.9835 32.7541 25.857 32.7112C25.2893 32.5189 24.7589 32.207 24.14 32.1783C24.0072 32.1725 23.8743 32.1465 23.7423 32.1503C23.1577 32.1667 22.5723 32.1788 21.989 32.2186C21.7727 32.2352 21.5609 32.2896 21.3633 32.3792C20.925 32.5773 20.5063 32.8198 20.0671 33.0155C19.9096 33.0855 19.7142 33.0727 19.5226 33.0997C19.3678 32.8103 19.4178 32.6404 19.6628 32.5133C20.0913 32.291 20.5156 32.0603 20.9356 31.8213C21.0935 31.7297 21.2421 31.6228 21.3792 31.5022C21.6565 31.2617 21.9504 31.2612 22.2615 31.4089C22.7269 31.6293 22.802 31.6061 23.1395 31.1911ZM30.937 18.3016C30.8039 18.2729 30.6788 18.2295 30.5523 18.2237C30.4401 18.2187 30.2712 18.2144 30.2215 18.2804C29.9601 18.6278 29.5845 18.5418 29.2495 18.5527C28.1797 18.587 27.1088 18.5834 26.039 18.6187C25.8136 18.6263 25.5804 18.7115 25.3705 18.8053C25.0352 18.9548 24.7221 19.1544 24.3873 19.3069C24.2134 19.3863 24.0142 19.4105 23.7707 19.4743C23.7808 19.2978 23.7609 19.1804 23.7982 19.0841C23.9227 18.7624 24.0503 18.44 24.2129 18.1362C24.2782 18.0132 24.4186 17.9079 24.5494 17.8463C24.9124 17.6759 25.2769 17.4902 25.6614 17.3873C26.6314 17.1284 27.6067 16.8756 28.6206 16.8579C29.1247 16.8486 29.5651 17.0571 29.9833 17.3056C30.2697 17.4758 30.5334 17.6838 30.8069 17.8756C30.9503 17.9742 31.0751 18.08 30.937 18.3016ZM18.1059 19.3669C17.267 18.978 16.3686 19.1511 15.4744 19.252C14.9279 19.3142 14.3819 19.3813 13.8381 19.4625C13.6771 19.4877 13.5203 19.5565 13.3688 19.622C13.1772 19.7052 12.9939 19.766 12.792 19.5951C12.792 19.5446 12.7761 19.4756 12.7943 19.4186C13.0801 18.525 14.087 17.7591 15.0277 17.7697C15.5919 17.776 16.155 17.864 16.7192 17.9106C17.2834 17.9573 17.8634 17.9305 18.3973 18.1582C18.7487 18.3086 19.0893 18.4828 19.417 18.6795C19.6187 18.7997 19.6051 18.8355 19.5592 19.3601C19.0601 19.2015 18.5945 19.0939 18.1054 19.3669H18.1059ZM12.3156 22.1509C12.3859 22.3559 12.4106 22.5757 12.4688 22.7854C12.6821 23.5523 13.0053 24.2654 13.5178 24.8827C13.9818 25.4421 14.5654 25.8573 15.2687 25.9967C16.1412 26.1701 17.0615 26.241 17.8859 25.8596C18.4001 25.6219 18.872 25.2097 19.2451 24.7756C19.5728 24.3942 19.7624 23.8832 19.9655 23.4093C20.3689 22.4668 20.2075 21.5558 19.6494 20.7372C19.4226 20.4037 19.0444 20.1716 18.7341 19.8958C18.628 19.8015 18.5151 19.7148 18.4316 19.5877C19.2458 19.6382 19.7155 20.2086 20.1735 20.7473C20.4687 20.7695 20.6918 20.3563 21.024 20.7302C20.9325 20.8411 20.8451 20.9732 20.7321 21.0776C20.5337 21.2608 20.4695 21.4443 20.4992 21.737C20.5514 22.2497 20.5536 22.7804 20.4803 23.2898C20.3772 24.0073 19.9736 24.6007 19.4765 25.1116C18.5705 26.0408 17.4729 26.4575 16.1588 26.3368C15.661 26.2909 15.1855 26.2826 14.6993 26.0847C13.8051 25.7222 13.183 25.0955 12.7542 24.2785C12.4691 23.7353 12.2941 23.134 12.0736 22.5578C12.0158 22.4065 11.9692 22.2523 11.913 22.0851C12.0801 21.9041 12.2296 21.9009 12.3156 22.1509ZM15.8543 22.1824L15.4711 22.4378L15.8899 23.0027C15.1676 23.1411 14.4782 22.8784 13.8866 23.2361C13.7061 23.1421 13.7058 23.0249 13.7897 22.8938C13.8251 22.8369 13.8687 22.7855 13.9191 22.7413C14.8951 21.9205 15.9773 21.3644 17.2952 21.4688C17.5496 21.489 17.8049 21.6105 18.0401 21.7257C18.3391 21.8724 18.6224 22.0534 18.902 22.2354C18.9736 22.2823 19.0517 22.3954 19.0427 22.4673C19.0336 22.5391 18.9209 22.6286 18.841 22.6437C18.1184 22.7703 17.3941 22.8873 16.6683 22.9949C16.4918 23.0216 16.3497 22.946 16.2521 22.7796C16.1457 22.5933 16.0162 22.4212 15.8543 22.1827V22.1824ZM28.2014 21.8391C27.313 22.6871 26.4514 22.578 26.0639 21.5174C25.9013 21.6939 25.7662 21.8535 25.618 21.9989C25.467 22.1511 25.3054 22.2925 25.1345 22.4219C25.0896 22.4549 24.958 22.4348 24.917 22.3914C24.8759 22.3481 24.89 22.2427 24.8918 22.1645C24.8918 22.1355 24.9192 22.1038 24.9404 22.0788C25.4572 21.4718 25.9992 20.9397 26.8814 20.8918C27.5467 20.8555 28.1731 20.9182 28.7834 21.1872C29.1651 21.3553 29.5613 21.4897 29.9463 21.651C30.1757 21.7468 30.4 21.8615 30.4756 22.2739C29.5727 22.0773 28.765 22.3982 27.9296 22.4209C27.8815 22.1446 28.3657 22.1509 28.2014 21.8391ZM23.566 20.8368C23.9275 19.9883 24.6167 19.5792 25.3997 19.2792C25.3057 19.346 25.2129 19.4153 25.1169 19.4796C24.53 19.8726 24.0833 20.3785 23.8471 21.0544C23.595 21.7741 23.7054 22.4842 23.9674 23.1658C24.3009 24.0332 24.8497 24.7287 25.6951 25.1772C26.8653 25.7968 28.5472 25.821 29.6861 24.945C30.8639 24.039 31.4003 22.8444 31.4079 21.3818C31.4079 21.2459 31.4368 21.1103 31.4583 20.9134C31.5646 21.0062 31.6249 21.0324 31.6317 21.0687C31.7542 21.7148 31.8316 22.3594 31.5422 22.9878C31.1588 23.8197 30.6655 24.585 29.9221 25.1253C29.2183 25.6367 28.3912 25.8618 27.5132 25.8613C26.3359 25.8613 25.3412 25.4351 24.4735 24.6357C23.9926 24.1928 23.712 23.6622 23.566 23.0541C23.4546 22.5988 23.3883 22.1335 23.3679 21.6652C23.3558 21.3405 23.2603 21.1207 22.9857 20.9669C22.9275 20.9344 22.8572 20.9034 22.8237 20.8517C22.7836 20.7897 22.7385 20.6631 22.7637 20.6404C22.8259 20.5847 22.9437 20.5273 23.0092 20.5515C23.195 20.6193 23.3629 20.7284 23.5663 20.8368H23.566ZM7.9389 26.5163C7.95402 26.2755 7.8731 26.0083 8.14863 25.8381C8.19527 25.8094 8.19098 25.6851 8.19501 25.6042C8.1998 25.5034 8.17863 25.4025 8.18594 25.3035C8.20459 25.0514 8.1025 24.732 8.43802 24.6186C8.64145 24.55 9.16906 24.9463 9.25049 25.1764C9.34703 25.4515 9.38989 25.6975 9.20461 25.9831C8.96488 26.3509 8.88547 26.8112 8.50936 27.1117C8.41231 27.1891 8.39693 27.4311 8.42164 27.5853C8.48188 27.9635 8.54364 28.3494 8.6838 28.7011C9.00748 29.5128 9.43098 30.2728 10.0844 30.8755C10.402 31.1684 10.7355 31.4442 11.1134 31.7727L10.7572 32.0308C10.2026 31.3583 9.57088 30.7956 9.09142 30.0822C8.59583 29.3444 8.25148 28.5801 8.12796 27.6922C8.07401 27.3022 7.91344 26.9234 7.9389 26.5163ZM36.7545 27.0058C36.7077 26.8157 36.6255 26.6529 36.6386 26.4984C36.6638 26.2143 36.5806 25.9748 36.4369 25.7466C36.1158 25.2369 36.0154 24.6481 35.844 24.0415C35.7376 24.1071 35.6459 24.1439 35.5811 24.2077C35.4503 24.336 35.3361 24.4809 35.2115 24.6158C35.0815 24.7567 34.9847 24.979 34.7326 24.8797C34.5786 24.819 34.6098 24.5976 34.8082 24.306C34.8538 24.2387 34.907 24.1547 34.9758 24.1295C35.3862 23.9692 35.6418 23.6377 35.8932 23.3075C36.0444 23.1106 36.2257 23.0267 36.4568 23.0713C36.6802 23.1146 36.7999 23.2898 36.8294 23.4973C36.9524 24.365 37.2075 25.2213 37.0563 26.1147C37.0041 26.4162 37.0707 26.7527 36.7545 27.0058ZM33.8105 29.9385C33.3973 30.6252 33.3166 31.3769 33.5049 32.1508C33.5322 32.2625 33.6547 32.3525 33.7396 32.4473C33.8016 32.5163 33.874 32.5761 33.9615 32.6583L32.8699 33.2799C32.8841 31.8632 33.3552 29.2642 33.6766 28.8521C34.0406 29.2093 34.0557 29.5309 33.8105 29.9385ZM36.5483 27.6128L36.6562 27.6504C36.6562 27.7542 36.6814 27.8667 36.6519 27.9607C36.3883 28.78 36.0684 29.5682 35.3646 30.1266C35.2889 30.1863 35.2216 30.2743 35.1359 30.2995C34.8669 30.3787 34.5922 30.4397 34.3174 30.4956C34.2418 30.511 34.1598 30.4843 34.0789 30.4765C33.991 30.2307 34.1132 30.1052 34.2781 30.0043C34.4333 29.9052 34.5937 29.8144 34.7585 29.7323C35.4278 29.4165 35.8508 28.8659 36.1992 28.2418C36.3162 28.0325 36.4319 27.8228 36.5483 27.6128ZM31.3131 20.3843C30.8089 19.9205 30.3047 19.4565 29.8006 18.9923C30.3874 18.8738 31.2195 19.5545 31.3131 20.3843ZM12.9014 20.3553C13.2057 20.0092 13.3093 19.9596 13.7746 20.0223C13.0413 20.4804 12.7159 21.1262 12.3705 21.8439C12.2389 21.3488 12.4209 20.9036 12.9014 20.3553ZM20.0321 26.8182L19.0411 28.09C19.1203 27.3118 19.3028 26.8409 20.0321 26.8182ZM9.23587 28.5934C9.32031 28.2085 9.45871 28.0683 9.88574 28.0073L9.55173 29.0383C9.26561 28.9375 9.18797 28.8105 9.23587 28.5934ZM10.0491 29.9005L9.99615 29.7515L10.3879 29.3706C10.7156 29.7109 10.5207 30.0706 10.7191 30.3883C10.2402 30.4291 10.3014 29.989 10.0491 29.9005Z" fill="#272727"/>
</svg>
