<svg width="28" height="28" viewBox="0 0 28 28" fill="none" xmlns="http://www.w3.org/2000/svg">
<path d="M9.54752 23.7C18.6042 23.7 23.5578 16.3141 23.5578 9.90903C23.5578 9.69925 23.553 9.49041 23.5434 9.28251C24.5043 8.59835 25.3405 7.74504 26 6.77266C25.1178 7.15821 24.1683 7.41808 23.1718 7.53526C24.1885 6.9352 24.969 5.9855 25.3366 4.85437C24.3853 5.41001 23.3312 5.81351 22.2099 6.03086C21.3123 5.08966 20.0326 4.5 18.6166 4.5C15.897 4.5 13.6918 6.67061 13.6918 9.34677C13.6918 9.7276 13.735 10.0971 13.8195 10.4514C9.728 10.2492 6.09824 8.32053 3.6704 5.38733C3.24704 6.10362 3.0032 6.93614 3.0032 7.82347C3.0032 9.50553 3.87296 10.9891 5.19392 11.8576C4.38656 11.833 3.6272 11.6147 2.96384 11.2509C2.96288 11.2707 2.96288 11.2915 2.96288 11.3123C2.96288 13.6596 4.66016 15.6195 6.91328 16.0636C6.49952 16.1742 6.06464 16.2337 5.61536 16.2337C5.29856 16.2337 4.98944 16.2026 4.68992 16.1459C5.3168 18.0717 7.13408 19.4731 9.29024 19.5119C7.60448 20.8121 5.48192 21.587 3.17504 21.587C2.7776 21.587 2.38592 21.5643 2 21.5199C4.1792 22.8977 6.7664 23.7 9.54752 23.7Z" fill="#3B3949"/>
</svg>
